<svg width="92" height="92" viewBox="0 0 92 92" fill="none" xmlns="http://www.w3.org/2000/svg">
<path d="M16.2919 1.15002H75.7081C84.7169 1.15002 92 8.43312 92 17.4419V74.5581C92 83.5669 84.7169 90.85 75.7081 90.85H16.2919C7.28309 90.85 0 83.5669 0 74.5581V17.4419C0 8.43312 7.28309 1.15002 16.2919 1.15002Z" fill="#001E36"/>
<path d="M32.9669 23.9581C31.8169 23.9581 30.6669 23.9581 29.4788 23.9969C28.29 24.035 27.178 24.035 26.143 24.0738C25.108 24.1119 24.15 24.1119 23.23 24.15C22.348 24.1881 21.735 24.1881 21.083 24.1881C20.815 24.1881 20.7 24.3412 20.7 24.61V64.055C20.7 64.4 20.853 64.5539 21.16 64.5539H28.5969C28.865 64.515 29.0569 64.285 29.018 64.0169V51.7119C29.7461 51.7119 30.283 51.7119 30.6669 51.75C31.05 51.7881 31.663 51.7881 32.583 51.7881C35.7269 51.7881 38.6019 51.4431 41.208 50.485C43.7 49.565 45.8469 47.955 47.3799 45.8081C48.9133 43.6615 49.68 40.9398 49.68 37.6431C49.68 35.9181 49.3738 34.27 48.7988 32.66C48.1895 31.0198 47.235 29.5295 46 28.29C44.5422 26.8738 42.7875 25.7999 40.863 25.1462C38.7161 24.3412 36.11 23.9581 32.9669 23.9581ZM33.8222 31.5086C35.1878 31.5345 36.5175 31.7731 37.758 32.2762C38.87 32.6981 39.79 33.465 40.4419 34.4612C41.0532 35.4922 41.3591 36.6757 41.3238 37.8738C41.3238 39.56 40.94 40.8638 40.135 41.8219C39.2911 42.78 38.218 43.5088 36.9919 43.8538C35.573 44.3138 34.078 44.5431 32.583 44.5431H30.5511C30.0911 44.5431 29.5938 44.505 29.0569 44.4669V31.5869C29.325 31.5481 29.8619 31.51 30.6288 31.5488C31.3569 31.51 32.238 31.51 33.235 31.51C33.4314 31.5052 33.6271 31.5048 33.8222 31.5086ZM65.9719 33.4658C63.25 33.4658 60.988 33.8869 59.1869 34.8069C57.5388 35.5738 56.12 36.8 55.1619 38.3331C54.3188 39.7519 53.858 41.3231 53.858 42.9719C53.8253 44.328 54.1282 45.6712 54.74 46.8819C55.4569 48.1711 56.4523 49.2842 57.6538 50.14C59.34 51.2934 61.1699 52.2213 63.0969 52.9C64.975 53.6281 66.24 54.2031 66.8538 54.7012C67.4669 55.2 67.7738 55.6981 67.7738 56.235C67.7738 56.925 67.3519 57.5769 66.7388 57.845C66.0488 58.19 65.0138 58.3819 63.5569 58.3819C62.0238 58.3819 60.49 58.19 59.033 57.8069C57.3602 57.4333 55.7563 56.7996 54.2799 55.9289C54.1649 55.8519 54.05 55.8139 53.935 55.8908C53.82 55.9669 53.7819 56.12 53.7819 56.235V62.905C53.7438 63.2119 53.935 63.48 54.2038 63.6331C55.4469 64.2139 56.7617 64.6265 58.1138 64.86C59.8388 65.205 61.563 65.3581 63.3261 65.3581C66.0861 65.3581 68.3869 64.9369 70.265 64.1319C71.99 63.4419 73.485 62.2539 74.558 60.72C75.5631 59.2122 76.0846 57.4338 76.053 55.6219C76.0909 54.2532 75.7881 52.8966 75.1719 51.6738C74.443 50.37 73.408 49.2969 72.143 48.4919C70.2924 47.3298 68.311 46.3903 66.24 45.6931C65.3151 45.3103 64.407 44.8883 63.518 44.4281C63.02 44.16 62.56 43.815 62.215 43.3931C61.985 43.0862 61.8319 42.7419 61.8319 42.3969C61.8319 42.0519 61.9469 41.6688 62.138 41.3619C62.4069 40.9788 62.828 40.71 63.3261 40.595C64.055 40.4038 64.86 40.2881 65.6261 40.3262C67.083 40.3262 68.5011 40.5181 69.9199 40.825C71.2238 41.0931 72.45 41.515 73.6 42.1288C73.753 42.205 73.945 42.205 74.2899 42.1288C74.3498 42.0845 74.3984 42.0266 74.4318 41.9599C74.4651 41.8932 74.4823 41.8196 74.4819 41.745V35.4969C74.4819 35.3431 74.443 35.19 74.405 35.0369C74.328 34.8839 74.1749 34.73 74.0219 34.6919C72.9646 34.2598 71.8568 33.9635 70.725 33.81C69.151 33.5809 67.5625 33.4663 65.9719 33.4658Z" fill="#31A8FF"/>
</svg>
