<svg width="54" height="54" viewBox="0 0 54 54" fill="none" xmlns="http://www.w3.org/2000/svg">
<path fill-rule="evenodd" clip-rule="evenodd" d="M26.9998 0C12.0902 0 0 12.3459 0 27.5771C0 39.7618 7.73626 50.0984 18.4641 53.7453C19.813 54.0011 20.3084 53.1471 20.3084 52.4187C20.3084 51.7611 20.2834 49.5888 20.2717 47.2844C12.7604 48.9526 11.1754 44.0307 11.1754 44.0307C9.94719 40.8432 8.17755 39.9956 8.17755 39.9956C5.72742 38.284 8.36221 38.3197 8.36221 38.3197C11.073 38.5137 12.5011 41.1615 12.5011 41.1615C14.9092 45.3765 18.8173 44.1581 20.358 43.4539C20.6004 41.6716 21.3001 40.4546 22.0722 39.7659C16.0752 39.0695 9.77059 36.7044 9.77059 26.1377C9.77059 23.1269 10.8258 20.6668 12.5529 18.7351C12.2721 18.041 11.348 15.2362 12.814 11.4376C12.814 11.4376 15.0809 10.6965 20.2404 14.2644C22.3946 13.6529 24.7048 13.3456 26.9998 13.3351C29.2934 13.3456 31.605 13.652 33.7631 14.2635C38.9165 10.6955 41.1806 11.4367 41.1806 11.4367C42.6502 15.2348 41.7261 18.0401 41.4457 18.7342C43.1769 20.6659 44.2245 23.126 44.2245 26.1368C44.2245 36.7286 37.9082 39.0604 31.896 39.7435C32.8649 40.5993 33.7278 42.278 33.7278 44.8504C33.7278 48.5403 33.6965 51.51 33.6965 52.4183C33.6965 53.1521 34.183 54.012 35.5511 53.7412C46.2727 50.0907 54 39.7572 54 27.5771C53.9996 12.3468 41.9107 0 26.9998 0Z" fill="white"/>
<path d="M10.2263 39.5943C10.1668 39.7313 9.95576 39.7724 9.7635 39.6787C9.56678 39.5892 9.45724 39.4025 9.52073 39.265C9.57885 39.1234 9.79033 39.0846 9.98572 39.1792C10.1824 39.2691 10.2942 39.4577 10.2258 39.5947L10.2263 39.5943ZM11.3199 40.8405C11.1916 40.9624 10.9398 40.9058 10.769 40.7126C10.592 40.5208 10.5589 40.2637 10.6899 40.14C10.8231 40.0185 11.0673 40.076 11.2443 40.2678C11.4205 40.4624 11.4554 40.7172 11.3203 40.841L11.3199 40.8405ZM12.3849 42.4283C12.2195 42.5461 11.9485 42.4361 11.7813 42.1909C11.6159 41.9452 11.6159 41.6506 11.7858 41.5333C11.9525 41.4154 12.2195 41.5218 12.3894 41.7648C12.5539 42.0137 12.5539 42.3087 12.3849 42.4283ZM13.8429 43.9632C13.6953 44.1299 13.3797 44.0851 13.149 43.8581C12.9134 43.6357 12.8476 43.3193 12.9956 43.153C13.1459 42.9859 13.4629 43.0325 13.6949 43.2581C13.9305 43.48 14.0016 43.7969 13.8438 43.9627L13.8429 43.9632ZM15.8549 44.8541C15.7891 45.0701 15.486 45.1683 15.1797 45.0761C14.8744 44.9815 14.6745 44.729 14.7371 44.5107C14.7997 44.2929 15.1051 44.191 15.4131 44.2892C15.7185 44.3833 15.9184 44.6345 15.8549 44.8541ZM18.0649 45.019C18.0725 45.2464 17.8132 45.4345 17.4926 45.4391C17.1694 45.4469 16.9078 45.2624 16.9047 45.0386C16.9047 44.8089 17.1586 44.6231 17.4814 44.6167C17.802 44.6107 18.0653 44.7934 18.0653 45.0185L18.0649 45.019ZM20.1207 44.6619C20.1591 44.8834 19.936 45.1112 19.6173 45.172C19.3043 45.2313 19.0137 45.0934 18.9734 44.8738C18.935 44.6463 19.1621 44.4185 19.4751 44.3596C19.7943 44.3034 20.0805 44.4367 20.1207 44.6619Z" fill="white"/>
</svg>
