<svg width="53" height="54" viewBox="0 0 53 54" fill="none" xmlns="http://www.w3.org/2000/svg">
<path d="M26.5 34.5827C24.5109 34.5827 22.6032 33.779 21.1967 32.3484C19.7902 30.9178 19 28.9774 19 26.9542C19 24.931 19.7902 22.9907 21.1967 21.56C22.6032 20.1294 24.5109 19.3257 26.5 19.3257C28.4891 19.3257 30.3968 20.1294 31.8033 21.56C33.2098 22.9907 34 24.931 34 26.9542C34 28.9774 33.2098 30.9178 31.8033 32.3484C30.3968 33.779 28.4891 34.5827 26.5 34.5827Z" fill="white"/>
<path fill-rule="evenodd" clip-rule="evenodd" d="M15.4542 0.1809C17.702 0.0615828 21.3953 0 26.5038 0C31.6123 0 35.3207 0.0615828 37.5533 0.1809C39.54 0.25403 41.5266 0.596586 43.4187 1.20472C45.3524 1.90523 47.1082 3.03681 48.565 4.51481C50.0219 5.9928 51.1269 7.77871 51.8156 9.74936C52.4146 11.6981 52.773 13.715 52.8827 15.7537C52.9584 17.9976 53 21.7196 53 26.9541C53 32.1887 52.9395 35.9222 52.8221 38.193C52.7454 40.218 52.407 42.2238 51.8156 44.1589C51.1239 46.1265 50.0116 47.9135 48.5589 49.391C47.1062 50.8686 45.3493 52 43.4149 52.7035C41.5124 53.3051 39.5404 53.6493 37.5495 53.7274C35.2968 53.8479 31.6136 53.9082 26.5 53.9082C18.8296 53.9082 17.6831 53.8467 15.4505 53.7274C13.4497 53.6533 11.4719 53.2691 9.58511 52.5881C7.64215 51.9633 5.87653 50.8699 4.43874 49.4011C2.98464 47.9243 1.87285 46.1359 1.18442 44.1666C0.593014 42.2315 0.254585 40.2257 0.177852 38.2007C0.0592841 35.9093 0 32.163 0 26.9618C0 19.16 0.0605455 17.9938 0.177852 15.7229C0.24975 13.7022 0.586534 11.6815 1.18442 9.75706C1.87379 7.78814 2.98527 5.99991 4.43826 4.52202C5.89125 3.04412 7.64935 1.9136 9.58511 1.21242C11.4876 0.610874 13.4596 0.266646 15.4505 0.188598L15.4542 0.1809ZM38.8778 9.68778C39.5143 9.2562 40.2787 9.06355 41.0397 9.14292C41.8006 9.22229 42.5107 9.56872 43.0478 10.1227C43.6683 10.7512 44.0204 11.603 44.0279 12.4937C43.9615 13.3827 43.5937 14.2207 42.9873 14.8646C42.6995 15.1847 42.3484 15.4392 41.9572 15.6117C41.5659 15.7842 41.1432 15.8706 40.7168 15.8653C40.2816 15.8697 39.8502 15.7832 39.4492 15.611C39.0483 15.4389 38.6863 15.1848 38.3858 14.8646C38.0382 14.5149 37.7715 14.0908 37.6051 13.6232C37.4388 13.1556 37.3769 12.6561 37.424 12.1611C37.4711 11.6661 37.626 11.188 37.8775 10.7615C38.1289 10.335 38.4706 9.97087 38.8778 9.69548V9.68778ZM19.9195 15.2687C21.9246 14.0648 24.2133 13.437 26.5416 13.452C28.87 13.437 31.1587 14.0648 33.1638 15.2687C35.1694 16.4504 36.8381 18.1478 38.0074 20.1954C39.1767 22.243 39.7935 24.5832 39.7935 26.931C39.7806 30.5018 38.3802 33.9226 35.8978 36.4476C33.4154 38.9725 30.0523 40.3968 26.5416 40.41C23.0317 40.3958 19.6695 38.971 17.1879 36.4462C14.7063 33.9214 13.3065 30.5012 13.2935 26.931C13.2935 24.5639 13.9103 22.2353 15.0758 20.1954C16.2413 18.1554 17.9063 16.4581 19.9195 15.2687Z" fill="white"/>
</svg>
