<svg width="91" height="91" viewBox="0 0 91 91" fill="none" xmlns="http://www.w3.org/2000/svg">
<g clip-path="url(#clip0_21_22)">
<path d="M69.6719 0H21.3281C9.54893 0 0 9.54893 0 21.3281V69.6719C0 81.4511 9.54893 91 21.3281 91H69.6719C81.4511 91 91 81.4511 91 69.6719V21.3281C91 9.54893 81.4511 0 69.6719 0Z" fill="#242938"/>
<path d="M11.9849 35.6208C11.9849 35.6208 10.3017 34.4076 12.3215 32.7877L17.0265 28.5804C17.0265 28.5804 18.373 27.1638 19.7963 28.398L63.2164 61.2714V77.035C63.2164 77.035 63.1955 79.5105 60.0187 79.2368L11.9849 35.6208Z" fill="#2489CA"/>
<path d="M23.1765 45.7815L11.9849 55.9561C11.9849 55.9561 10.8346 56.8117 11.9849 58.3406L17.1808 63.0665C17.1808 63.0665 18.4149 64.3921 20.2381 62.8842L32.103 53.8876L23.1765 45.7815Z" fill="#1070B3"/>
<path d="M42.8247 45.8658L63.3498 30.1931L63.2165 14.5138C63.2165 14.5138 62.3399 11.0917 59.4158 12.8729L32.103 37.7312L42.8247 45.8658Z" fill="#0877B9"/>
<path d="M60.0186 79.2582C61.2109 80.4781 62.6555 80.0786 62.6555 80.0786L78.6505 72.1968C80.698 70.8012 80.4105 69.0694 80.4105 69.0694V22.0028C80.4105 19.934 78.2926 19.2191 78.2926 19.2191L64.4297 12.5363C61.4004 10.6641 59.4158 12.8729 59.4158 12.8729C59.4158 12.8729 61.968 11.0359 63.2164 14.5138V76.7475C63.2181 77.1719 63.1247 77.5913 62.9431 77.9749C62.5784 78.7111 61.786 79.3982 59.8857 79.1106L60.0186 79.2582Z" fill="#3C99D4"/>
</g>
<defs>
<clipPath id="clip0_21_22">
<rect width="91" height="91" fill="white"/>
</clipPath>
</defs>
</svg>
