<svg width="92" height="92" viewBox="0 0 92 92" fill="none" xmlns="http://www.w3.org/2000/svg">
<g clip-path="url(#clip0_21_10)">
<path d="M70.4375 0H21.5625C9.65386 0 0 9.65386 0 21.5625V70.4375C0 82.3461 9.65386 92 21.5625 92H70.4375C82.3461 92 92 82.3461 92 70.4375V21.5625C92 9.65386 82.3461 0 70.4375 0Z" fill="#242938"/>
<mask id="mask0_21_10" style="mask-type:luminance" maskUnits="userSpaceOnUse" x="21" y="10" width="49" height="72">
<path d="M21.9219 10.0625H69.8481V81.9375H21.9219V10.0625Z" fill="white"/>
</mask>
<g mask="url(#mask0_21_10)">
<path d="M33.9059 81.9375C40.5184 81.9375 45.885 76.5709 45.885 69.9584V57.979H33.9059C27.2934 57.979 21.9265 63.3459 21.9265 69.9584C21.9265 76.5709 27.2934 81.9375 33.9059 81.9375Z" fill="#0ACF83"/>
<path d="M21.9265 46C21.9265 39.3875 27.2934 34.021 33.9059 34.021H45.885V57.9791H33.9059C27.2934 57.9791 21.9265 52.6125 21.9265 46Z" fill="#A259FF"/>
<path d="M21.9265 22.0415C21.9265 15.429 27.2934 10.0625 33.9059 10.0625H45.885V34.021H33.9059C27.2934 34.021 21.9265 28.654 21.9265 22.0415Z" fill="#F24E1E"/>
<path d="M45.885 10.0625H57.8641C64.4766 10.0625 69.8435 15.429 69.8435 22.0415C69.8435 28.654 64.4766 34.021 57.8641 34.021H45.885V10.0625Z" fill="#FF7262"/>
<path d="M69.8435 46C69.8435 52.6125 64.4766 57.9791 57.8641 57.9791C51.2516 57.9791 45.885 52.6125 45.885 46C45.885 39.3875 51.2516 34.021 57.8641 34.021C64.4766 34.021 69.8435 39.3875 69.8435 46Z" fill="#1ABCFE"/>
</g>
</g>
<defs>
<clipPath id="clip0_21_10">
<rect width="92" height="92" fill="white"/>
</clipPath>
</defs>
</svg>
