<svg width="53" height="39" viewBox="0 0 53 39" fill="none" xmlns="http://www.w3.org/2000/svg">
<path d="M47.7 0H5.3C2.385 0 0.0265 2.17413 0.0265 4.8314L0 33.8198C0 36.4771 2.385 38.6512 5.3 38.6512H47.7C50.615 38.6512 53 36.4771 53 33.8198V4.8314C53 2.17413 50.615 0 47.7 0ZM46.64 10.2667L27.9045 20.9441C27.0565 21.4273 25.9435 21.4273 25.0955 20.9441L6.36 10.2667C6.09428 10.1307 5.86159 9.94703 5.676 9.7267C5.49042 9.50637 5.35582 9.25401 5.28032 8.98488C5.20483 8.71576 5.19003 8.43547 5.23681 8.16097C5.2836 7.88648 5.39099 7.6235 5.5525 7.38794C5.714 7.15238 5.92626 6.94914 6.17642 6.79052C6.42659 6.6319 6.70946 6.52121 7.00791 6.46513C7.30637 6.40906 7.6142 6.40877 7.91278 6.46429C8.21136 6.5198 8.49448 6.62997 8.745 6.78812L26.5 16.9099L44.255 6.78812C44.5055 6.62997 44.7886 6.5198 45.0872 6.46429C45.3858 6.40877 45.6936 6.40906 45.9921 6.46513C46.2905 6.52121 46.5734 6.6319 46.8236 6.79052C47.0737 6.94914 47.286 7.15238 47.4475 7.38794C47.609 7.6235 47.7164 7.88648 47.7632 8.16097C47.81 8.43547 47.7952 8.71576 47.7197 8.98488C47.6442 9.25401 47.5096 9.50637 47.324 9.7267C47.1384 9.94703 46.9057 10.1307 46.64 10.2667Z" fill="white"/>
</svg>
