<svg width="53" height="54" viewBox="0 0 53 54" fill="none" xmlns="http://www.w3.org/2000/svg">
<path fill-rule="evenodd" clip-rule="evenodd" d="M9.63636 0C7.08064 0 4.62959 1.03266 2.82243 2.87079C1.01526 4.70893 0 7.20198 0 9.8015V44.1067C0 46.7063 1.01526 49.1993 2.82243 51.0375C4.62959 52.8756 7.08064 53.9082 9.63636 53.9082H43.3636C45.9194 53.9082 48.3704 52.8756 50.1776 51.0375C51.9847 49.1993 53 46.7063 53 44.1067V9.8015C53 7.20198 51.9847 4.70893 50.1776 2.87079C48.3704 1.03266 45.9194 0 43.3636 0H9.63636ZM8.83173 8.57631C8.56801 8.676 8.33082 8.83695 8.13905 9.04634C7.94729 9.25573 7.80625 9.50778 7.72717 9.78241C7.64809 10.057 7.63315 10.3466 7.68355 10.6282C7.73394 10.9097 7.84828 11.1754 8.01746 11.404L21.5421 29.6593L7.29232 45.207L7.18632 45.3319H12.1177L23.7536 32.6414L32.6962 44.7169C32.9037 44.9964 33.1853 45.2098 33.508 45.3319H44.161C44.4244 45.2317 44.6611 45.0704 44.8523 44.8608C45.0435 44.6511 45.1841 44.399 45.2627 44.1245C45.3413 43.8499 45.3558 43.5604 45.305 43.2792C45.2543 42.9979 45.1398 42.7325 44.9705 42.5042L31.4459 24.2489L45.8137 8.57631H40.875L29.2391 21.2693L20.2918 9.19381C20.0846 8.91339 19.8029 8.69912 19.4799 8.57631H8.83173ZM35.0426 41.774L13.0838 12.1343H17.9477L39.9042 41.7715L35.0426 41.774Z" fill="white"/>
</svg>
